<?xml version="1.0" encoding="utf-8"?>
<!-- Generator: Adobe Illustrator 26.0.2, SVG Export Plug-In . SVG Version: 6.00 Build 0)  -->
<svg version="1.1" id="Layer_1" xmlns="http://www.w3.org/2000/svg" xmlns:xlink="http://www.w3.org/1999/xlink" x="0px" y="0px"
	 viewBox="0 0 1326 950.5" style="enable-background:new 0 0 1326 950.5;" xml:space="preserve">
<style type="text/css">
	.st0{fill:url(#SVGID_1_);}
	.st1{fill:url(#SVGID_00000128476582140853975350000005898571176295285391_);}
	.st2{fill:url(#SVGID_00000029742807750973691150000007101202063944351143_);}
	.st3{fill:url(#SVGID_00000022530006968695579370000004519120854118034336_);}
	.st4{fill:url(#SVGID_00000062894214958682895350000013633082057038026419_);}
	.st5{fill:url(#SVGID_00000154415902580149360810000009019818486900361609_);}
	.st6{fill:url(#SVGID_00000118357576286633587210000007042544777743085748_);}
	.st7{fill:url(#SVGID_00000021113593254775993570000005491236657159328927_);}
	.st8{fill:url(#SVGID_00000094599708045565999110000002273682309179887749_);}
	.st9{fill:url(#SVGID_00000061471594635126792920000008699935301905758386_);}
	.st10{fill:url(#SVGID_00000162336916466235610080000004796483097672044432_);}
	.st11{fill:url(#SVGID_00000042720843582676906790000010159667420178162568_);}
	.st12{fill:url(#SVGID_00000111161737130625036970000009808755589724853933_);}
	.st13{fill:url(#SVGID_00000130629944326274984910000008432594718860417929_);}
	.st14{fill:url(#SVGID_00000003799338091239180800000001044716786934679465_);}
	.st15{fill:url(#SVGID_00000173860121595469157970000013943028934238684558_);}
	.st16{fill:url(#SVGID_00000142873442889720764860000000828753876693684358_);}
	.st17{fill:url(#SVGID_00000111894051642448800300000004853490390259373496_);}
	.st18{fill:url(#SVGID_00000028318761362379814040000014637679337639750799_);}
</style>
<g>
	<g>
		<g>
			<g>
				
					<linearGradient id="SVGID_1_" gradientUnits="userSpaceOnUse" x1="354.917" y1="569.7997" x2="985.7847" y2="565.4188" gradientTransform="matrix(1 0 0 -1 0 940.4487)">
					<stop  offset="0" style="stop-color:#15D4FF"/>
					<stop  offset="1" style="stop-color:#2E00FF"/>
				</linearGradient>
				<path class="st0" d="M414.3,369c0,48.1-23.1,94-61.7,122.6c-10.4,7.7-25.2,5.5-32.9-4.9s-5.6-25.2,4.9-32.9
					c26.7-19.8,42.7-51.5,42.7-84.8c0-32.1-14.4-62.1-39.4-82.3c-10.1-8.2-11.7-23-3.5-33.1c8.2-10.1,23-11.7,33.1-3.5
					C393.6,279.3,414.3,322.6,414.3,369z"/>
			</g>
			<g>
				
					<linearGradient id="SVGID_00000161615672160722648210000017166378954071183036_" gradientUnits="userSpaceOnUse" x1="354.9088" y1="568.6196" x2="985.7766" y2="564.2386" gradientTransform="matrix(1 0 0 -1 0 940.4487)">
					<stop  offset="0" style="stop-color:#15D4FF"/>
					<stop  offset="1" style="stop-color:#2E00FF"/>
				</linearGradient>
				<path style="fill:url(#SVGID_00000161615672160722648210000017166378954071183036_);" d="M537.3,369
					c0,89.8-43.1,175.4-115.2,228.9c-10.4,7.8-25.2,5.6-32.9-4.9c-7.7-10.4-5.6-25.2,4.9-32.9c60.2-44.7,96.2-116.2,96.2-191.1
					c0-72.3-32.4-139.9-88.8-185.3c-10.1-8.1-11.7-23-3.6-33.1c8.2-10.1,23-11.7,33.1-3.6C498.6,201.4,537.3,282.3,537.3,369z"/>
			</g>
			<g>
				
					<linearGradient id="SVGID_00000016772823096217057370000002938535808887433387_" gradientUnits="userSpaceOnUse" x1="354.8994" y1="567.2558" x2="985.7671" y2="562.8748" gradientTransform="matrix(1 0 0 -1 0 940.4487)">
					<stop  offset="0" style="stop-color:#15D4FF"/>
					<stop  offset="1" style="stop-color:#2E00FF"/>
				</linearGradient>
				<path style="fill:url(#SVGID_00000016772823096217057370000002938535808887433387_);" d="M646.8,369
					c0,133.1-63.8,260.1-170.7,339.6c-10.4,7.8-25.2,5.6-32.9-4.8c-7.8-10.4-5.6-25.2,4.8-32.9c96.4-71.7,151.8-181.8,151.8-301.8
					c0-114.3-51.1-220.9-140.1-292.6c-10.1-8.1-11.7-23-3.6-33.1c8.2-10.1,23-11.7,33.1-3.6C589.3,120.4,646.8,240.4,646.8,369z"/>
			</g>
		</g>
		<g>
			
				<linearGradient id="SVGID_00000047742827348507204900000003488651717732355202_" gradientUnits="userSpaceOnUse" x1="354.8969" y1="566.9066" x2="985.7646" y2="562.5256" gradientTransform="matrix(1 0 0 -1 0 940.4487)">
				<stop  offset="0" style="stop-color:#15D4FF"/>
				<stop  offset="1" style="stop-color:#2E00FF"/>
			</linearGradient>
			<path style="fill:url(#SVGID_00000047742827348507204900000003488651717732355202_);" d="M670,308.4
				c31.7,5.8,55.8,33.7,55.8,67.2c0,34.1-24.9,62.4-57.5,67.4c4.1-23.7,6.3-47.9,6.3-72.3C674.5,349.7,673,328.9,670,308.4z"/>
			<g>
				
					<linearGradient id="SVGID_00000043438420997522057680000014780306215415783330_" gradientUnits="userSpaceOnUse" x1="354.9109" y1="568.9201" x2="985.7786" y2="564.5391" gradientTransform="matrix(1 0 0 -1 0 940.4487)">
					<stop  offset="0" style="stop-color:#15D4FF"/>
					<stop  offset="1" style="stop-color:#2E00FF"/>
				</linearGradient>
				<path style="fill:url(#SVGID_00000043438420997522057680000014780306215415783330_);" d="M867.8,366.3h-10
					c-16.2,0-31.7-5.2-45.7-13.4c-3.9-2.3-8.5-3.6-13.3-3.6c-14.7,0-26.7,12.1-26.4,26.8c0.2,14.1,12.1,25.9,26.2,26
					c5.2,0,10.1-1.4,14.3-4c12.5-7.9,26.5-13,41.2-13h13.8c20.2,0,39.1,7.8,55,20.3c7.3,5.8,16.9,8.9,27.2,7.8
					c17.4-1.8,31.7-15.8,33.6-33.3c2.5-22.8-15.2-42.1-37.5-42.1c-8.9,0-17.1,3.1-23.5,8.3C906.9,358.7,887.8,366.3,867.8,366.3z"/>
				
					<linearGradient id="SVGID_00000093884659681994194190000004532373317725342093_" gradientUnits="userSpaceOnUse" x1="356.3899" y1="781.8781" x2="987.2574" y2="777.4971" gradientTransform="matrix(1 0 0 -1 0 940.4487)">
					<stop  offset="0" style="stop-color:#15D4FF"/>
					<stop  offset="1" style="stop-color:#2E00FF"/>
				</linearGradient>
				<path style="fill:url(#SVGID_00000093884659681994194190000004532373317725342093_);" d="M680.2,55.3
					c-17.4,1.9-31.5,16.2-33.3,33.6c-1,10.3,2.1,19.8,7.8,27.2c12.5,15.8,20.3,34.8,20.3,55v13.8c0,14.7-5.1,28.8-13,41.2
					c-2.6,4.1-4.1,9-4,14.3c0.1,14.1,12,26,26,26.2c14.8,0.2,26.8-11.7,26.8-26.4c0-4.9-1.3-9.4-3.6-13.3
					c-8.2-14-13.4-29.5-13.4-45.7v-10c0-20,7.5-39.1,20.1-54.7c5.2-6.4,8.3-14.6,8.3-23.5C722.3,70.5,703,52.7,680.2,55.3z"/>
				
					<linearGradient id="SVGID_00000012464849324686275270000009583462363426419378_" gradientUnits="userSpaceOnUse" x1="356.2486" y1="761.5421" x2="987.1162" y2="757.1611" gradientTransform="matrix(1 0 0 -1 0 940.4487)">
					<stop  offset="0" style="stop-color:#15D4FF"/>
					<stop  offset="1" style="stop-color:#2E00FF"/>
				</linearGradient>
				<circle style="fill:url(#SVGID_00000012464849324686275270000009583462363426419378_);" cx="646.8" cy="180.9" r="17"/>
				
					<linearGradient id="SVGID_00000087413031819785841740000004459733827547998625_" gradientUnits="userSpaceOnUse" x1="356.6177" y1="814.7" x2="987.4855" y2="810.3189" gradientTransform="matrix(1 0 0 -1 0 940.4487)">
					<stop  offset="0" style="stop-color:#15D4FF"/>
					<stop  offset="1" style="stop-color:#2E00FF"/>
				</linearGradient>
				<circle style="fill:url(#SVGID_00000087413031819785841740000004459733827547998625_);" cx="799.5" cy="128.8" r="17"/>
				
					<linearGradient id="SVGID_00000163031654975202038660000012645887764733701044_" gradientUnits="userSpaceOnUse" x1="355.5832" y1="665.7202" x2="986.4509" y2="661.3393" gradientTransform="matrix(1 0 0 -1 0 940.4487)">
					<stop  offset="0" style="stop-color:#15D4FF"/>
					<stop  offset="1" style="stop-color:#2E00FF"/>
				</linearGradient>
				<circle style="fill:url(#SVGID_00000163031654975202038660000012645887764733701044_);" cx="931" cy="278.7" r="17"/>
				
					<linearGradient id="SVGID_00000178927960876309866990000012724974113693808316_" gradientUnits="userSpaceOnUse" x1="355.382" y1="636.7578" x2="986.2497" y2="632.3768" gradientTransform="matrix(1 0 0 -1 0 940.4487)">
					<stop  offset="0" style="stop-color:#15D4FF"/>
					<stop  offset="1" style="stop-color:#2E00FF"/>
				</linearGradient>
				<circle style="fill:url(#SVGID_00000178927960876309866990000012724974113693808316_);" cx="849.8" cy="307.1" r="34"/>
				
					<linearGradient id="SVGID_00000023243993567582652500000007982563148769331611_" gradientUnits="userSpaceOnUse" x1="356.1847" y1="752.3301" x2="987.0523" y2="747.949" gradientTransform="matrix(1 0 0 -1 0 940.4487)">
					<stop  offset="0" style="stop-color:#15D4FF"/>
					<stop  offset="1" style="stop-color:#2E00FF"/>
				</linearGradient>
				<circle style="fill:url(#SVGID_00000023243993567582652500000007982563148769331611_);" cx="760.2" cy="190.9" r="34"/>
				
					<linearGradient id="SVGID_00000010272762130608925280000003905741871797389236_" gradientUnits="userSpaceOnUse" x1="356.2534" y1="762.2383" x2="987.1211" y2="757.8573" gradientTransform="matrix(1 0 0 -1 0 940.4487)">
					<stop  offset="0" style="stop-color:#15D4FF"/>
					<stop  offset="1" style="stop-color:#2E00FF"/>
				</linearGradient>
				<path style="fill:url(#SVGID_00000010272762130608925280000003905741871797389236_);" d="M938.3,78.3
					c-2.3,19.9-10.5,38.7-24.8,52.8l-7.1,7.1c-7,6.9-15.1,12.2-23.9,16.3c-14-6.7-31.2-4.3-42.9,7.2c-6.3,6.3-10,14.2-10.9,22.4
					c-2.3,19.9-10.5,38.7-24.8,52.8l-7.1,7.1c-11.5,11.4-26.2,18.6-41.9,22.6c-4.4,1.1-8.6,3.4-12,6.8
					c-10.5,10.4-10.5,27.3,0.1,37.7c10.1,9.9,26.9,9.9,37,0.1c3.8-3.7,6.2-8.2,7.3-12.9c3.3-14.4,9.7-27.8,20.2-38.2l9.8-9.7
					c14.3-14.2,33.3-22,53.3-24.3c9.3-1.1,18.3-5.6,24.8-13.6c8.3-10.1,10.6-23.9,6.6-35.9c3.6-8.3,8.5-15.9,15-22.3l9.8-9.7
					c14.3-14.2,33.3-22,53.3-24.3c9.3-1.1,18.3-5.6,24.8-13.6c11.1-13.5,11.4-33.6,0.5-47.3c-14.2-18-40.5-19.2-56.3-3.5
					C942.9,62.1,939.3,70,938.3,78.3z"/>
				
					<linearGradient id="SVGID_00000038405376375161868430000009614199697581063563_" gradientUnits="userSpaceOnUse" x1="353.4306" y1="355.7567" x2="984.2983" y2="351.3756" gradientTransform="matrix(1 0 0 -1 0 940.4487)">
					<stop  offset="0" style="stop-color:#15D4FF"/>
					<stop  offset="1" style="stop-color:#2E00FF"/>
				</linearGradient>
				<path style="fill:url(#SVGID_00000038405376375161868430000009614199697581063563_);" d="M680.2,692.5
					c-17.4-1.9-31.5-16.2-33.3-33.6c-1-10.3,2.1-19.8,7.8-27.2c12.5-15.8,20.3-34.8,20.3-55v-13.8c0-14.7-5.1-28.8-13-41.2
					c-2.6-4.1-4.1-9-4-14.3c0.1-14.1,12-26,26-26.2c14.8-0.2,26.8,11.7,26.8,26.4c0,4.9-1.3,9.4-3.6,13.3
					c-8.2,14-13.4,29.5-13.4,45.7v10c0,20,7.5,39.1,20.1,54.7c5.2,6.4,8.3,14.6,8.3,23.5C722.3,677.2,703,695,680.2,692.5z"/>
				
					<linearGradient id="SVGID_00000005262476141398991650000003283037755400742019_" gradientUnits="userSpaceOnUse" x1="353.5682" y1="375.5607" x2="984.4359" y2="371.1797" gradientTransform="matrix(1 0 0 -1 0 940.4487)">
					<stop  offset="0" style="stop-color:#15D4FF"/>
					<stop  offset="1" style="stop-color:#2E00FF"/>
				</linearGradient>
				<circle style="fill:url(#SVGID_00000005262476141398991650000003283037755400742019_);" cx="646.8" cy="566.9" r="17"/>
				
					<linearGradient id="SVGID_00000152255522394978428990000017424028447213258422_" gradientUnits="userSpaceOnUse" x1="353.2137" y1="324.5235" x2="984.0814" y2="320.1426" gradientTransform="matrix(1 0 0 -1 0 940.4487)">
					<stop  offset="0" style="stop-color:#15D4FF"/>
					<stop  offset="1" style="stop-color:#2E00FF"/>
				</linearGradient>
				<circle style="fill:url(#SVGID_00000152255522394978428990000017424028447213258422_);" cx="799.5" cy="619" r="17"/>
				
					<linearGradient id="SVGID_00000042716630189952964230000005127823139139650996_" gradientUnits="userSpaceOnUse" x1="354.2617" y1="475.4295" x2="985.1293" y2="471.0485" gradientTransform="matrix(1 0 0 -1 0 940.4487)">
					<stop  offset="0" style="stop-color:#15D4FF"/>
					<stop  offset="1" style="stop-color:#2E00FF"/>
				</linearGradient>
				<circle style="fill:url(#SVGID_00000042716630189952964230000005127823139139650996_);" cx="931" cy="469" r="17"/>
				
					<linearGradient id="SVGID_00000033353269349654391110000004112446014408528290_" gradientUnits="userSpaceOnUse" x1="354.4543" y1="503.1641" x2="985.322" y2="498.7833" gradientTransform="matrix(1 0 0 -1 0 940.4487)">
					<stop  offset="0" style="stop-color:#15D4FF"/>
					<stop  offset="1" style="stop-color:#2E00FF"/>
				</linearGradient>
				<circle style="fill:url(#SVGID_00000033353269349654391110000004112446014408528290_);" cx="849.8" cy="440.7" r="34"/>
				
					<linearGradient id="SVGID_00000152246727991763378640000016985592825919427509_" gradientUnits="userSpaceOnUse" x1="353.6437" y1="386.4477" x2="984.5115" y2="382.0667" gradientTransform="matrix(1 0 0 -1 0 940.4487)">
					<stop  offset="0" style="stop-color:#15D4FF"/>
					<stop  offset="1" style="stop-color:#2E00FF"/>
				</linearGradient>
				<circle style="fill:url(#SVGID_00000152246727991763378640000016985592825919427509_);" cx="760.2" cy="556.8" r="34"/>
				
					<linearGradient id="SVGID_00000129922924323645329340000005692373387227887030_" gradientUnits="userSpaceOnUse" x1="353.5847" y1="377.9451" x2="984.4525" y2="373.5641" gradientTransform="matrix(1 0 0 -1 0 940.4487)">
					<stop  offset="0" style="stop-color:#15D4FF"/>
					<stop  offset="1" style="stop-color:#2E00FF"/>
				</linearGradient>
				<path style="fill:url(#SVGID_00000129922924323645329340000005692373387227887030_);" d="M938.3,669.5
					c-2.3-19.9-10.5-38.7-24.8-52.8l-7.1-7.1c-7-6.9-15.1-12.2-23.9-16.3c-14,6.7-31.2,4.3-42.9-7.2c-6.3-6.3-10-14.2-10.9-22.4
					c-2.3-19.9-10.5-38.7-24.8-52.8l-7.1-7.1c-11.5-11.4-26.2-18.6-41.9-22.6c-4.4-1.1-8.6-3.4-12-6.8
					c-10.5-10.4-10.5-27.3,0.1-37.7c10.1-9.9,26.9-9.9,37-0.1c3.8,3.7,6.2,8.2,7.3,12.9c3.3,14.4,9.7,27.8,20.2,38.2l9.8,9.7
					c14.3,14.2,33.3,22,53.3,24.3c9.3,1.1,18.3,5.6,24.8,13.6c8.3,10.1,10.6,23.9,6.6,35.9c3.6,8.3,8.5,15.9,15,22.3l9.8,9.7
					c14.3,14.2,33.3,22,53.3,24.3c9.3,1.1,18.3,5.6,24.8,13.6c11.1,13.5,11.4,33.6,0.5,47.3c-14.2,18-40.5,19.2-56.3,3.5
					C942.9,685.7,939.3,677.7,938.3,669.5z"/>
			</g>
		</g>
	</g>
	<g>
		<path d="M110.5,905.9h-56L40,881.6h64.8c2.6,0,4.7-0.7,6.3-2.1c1.8-1.6,3.2-3.7,4-6.2c0.7-2.2,1.1-4.5,1.1-6.7
			c0-2.4-0.4-4.8-1.1-7.1c-0.7-2.3-2-4.1-3.8-5.5c-1.5-1.3-3.7-1.9-6.5-1.9H65c-4.8,0-9.1-1.2-12.9-3.7c-3.5-2.2-6.5-5.2-8.9-9
			c-4.9-7.7-7.3-16.7-7.3-26.9c0-5.2,0.7-10.2,2.2-15c2.6-9.3,7.3-16.1,14.1-20.4c3.7-2.2,7.9-3.4,12.8-3.4h55.8
			c5,8.1,10,16.2,14.9,24.3H70.9c-1.5,0-2.8,0.2-3.7,0.5c-0.9,0.3-1.8,0.9-2.7,1.7c-1.8,1.6-3.1,3.7-3.9,6.3l-0.1,0.3
			c-0.8,2-1.2,4.1-1.2,6.4c0,2.4,0.4,4.6,1.1,6.8v0.1c0.7,2.4,2,4.2,3.7,5.7c1.5,1.3,3.7,2,6.4,2h39.9c7,0,13,2.7,18.1,8
			c4.2,4.5,7.2,10.1,9,17c1.3,4.9,2,9.9,2,15.1c0,6.2-1,12.1-3.1,17.7s-5.3,10.4-9.6,14.3C122.2,903.9,116.8,905.9,110.5,905.9z"/>
		<path d="M230.1,905.9c8.9,0,17.1-1.8,24.3-5.4s13.5-8.8,18.6-15.7c9.3-12.6,14-27.6,14-45.1c0-8.2-1.1-15.8-3.1-22.8
			c-1.2-5.4-3.2-10.5-6.1-15.3c-1.4-2.4-3-4.7-4.8-6.8l-0.1-0.1c-5.1-6.8-11.3-12-18.6-15.6s-15.4-5.3-24.3-5.3h-0.7h-13.4h-0.7
			c-8.9,0-17.1,1.8-24.3,5.3c-7.3,3.6-13.5,8.7-18.6,15.6l-0.1,0.1c0,0,0,0-0.1,0.1c-2.8,3.5-5,7.4-6.7,11.5l-1.9,4.4
			c-0.6,1.4-1.1,2.8-1.6,4.2c-2.4,7.6-3.7,15.8-3.7,24.7c0,17.5,4.7,32.5,14,45.1c5.1,6.9,11.3,12.1,18.6,15.7s15.4,5.4,24.3,5.4
			L230.1,905.9L230.1,905.9z M259.1,860.3c-2.4,6.2-6,11.4-11,15.5c-4.7,3.8-10.7,5.8-18,5.8h-14.8c-7.3,0-13.3-1.9-18-5.8
			c-5-4.1-8.7-9.2-11-15.5c-2.6-6.5-3.9-13.4-3.9-20.6c0-7.1,1.3-13.8,3.9-20.4c1.6-4.3,3.9-8,6.7-11.3c0.2-0.2,0.4-0.4,0.6-0.6
			c3.2-3.2,6.6-5.6,10.2-7.1c3.6-1.5,7.6-2.2,12.2-2.2h13.3c4.6,0,8.7,0.7,12.2,2.2c3.6,1.5,7,3.9,10.2,7.1c0.2,0.2,0.3,0.4,0.5,0.6
			c2.9,3.3,5.2,7,6.8,11.4c2.6,6.5,3.9,13.3,3.9,20.4C262.9,846.9,261.6,853.8,259.1,860.3z"/>
		<polygon points="399.7,773.8 399.7,863.4 331.6,773.8 310,773.8 310,905.9 334.4,905.9 334.4,818.8 402.5,905.9 424.1,905.9 
			424.1,773.8 		"/>
		<path d="M472.9,905.9h-24.3V773.8h24.3V905.9z"/>
		<path d="M532.3,905.9h-24.8v-65.1h46.2c4.6,0,8.5-1,11.6-3.1c3.1-2,5.4-4.6,7-7.8c1.5-3.2,2.3-6.6,2.3-10.3
			c0-3.5-0.8-6.9-2.3-10.1s-3.9-5.9-7-7.9s-7-3.1-11.6-3.1h-48.4l-15-24.8h63.4c10,0,18.4,2.2,25,6.6s11.6,10.1,14.9,17
			c3.3,6.9,5,14.1,5,21.5s-1.7,14.5-5,21.5c-3.3,6.9-8.3,12.6-14.9,17c-6.6,4.4-14.9,6.6-25,6.6h-21.4V905.9z"/>
		<path d="M714.2,905.9h-28.7L654.2,867H642l-11.3-24.3h44.2c5.8,0,10.6-1.1,14.4-3.3c3.8-2.2,6.7-5,8.5-8.5c1.9-3.5,2.8-7,2.8-10.5
			c0-3.7-0.9-7.2-2.8-10.6s-4.7-6.2-8.5-8.4c-3.8-2.2-8.6-3.3-14.4-3.3H616l-11.2-24.4h72.7c14.5,0,26.1,4.9,34.8,14.6
			c7.7,8.9,11.5,19.6,11.5,32c0,5.8-0.9,11.4-2.8,16.9c-3.1,8.8-8.2,15.8-15.3,21.1c-6.6,4.8-14.3,7.6-23,8.4L714.2,905.9z"/>
		<path d="M838.9,798.1h-95v-24.3h80.3C829.1,781.9,834,790,838.9,798.1z M816.3,852.2H744v-24.3h57.8L816.3,852.2z M838.8,905.9
			h-94.9v-24.4h80.3L838.8,905.9z"/>
		<path d="M917.3,905.9h-16.4l-14.6-24.4h31.1c5.9,0,11.2-1,15.9-3c4.7-2,9.1-5.2,13.3-9.5h0.1c4.2-4.2,7.3-8.6,9.2-13.4
			c1.9-4.7,2.9-10,2.9-16c0-8.6-2.3-16.2-6.8-22.8c-3.3-4.8-7.3-8.8-12-12c-6.9-4.5-14.5-6.8-22.8-6.8h-34.3v52.9h-24.3v-77.2h58.7
			c12.3,0,23.3,3,33.2,8.9c10,6.1,17.9,14.1,23.9,23.9v0.1c5.8,9.6,8.8,20.6,8.8,33c0,8.5-1.4,16.4-4.2,23.6
			c-2.8,7.2-6.6,13.7-11.6,19.3C954,898.1,937.3,905.9,917.3,905.9z"/>
		<path d="M1026.2,905.9h-24.3V773.8h24.3V905.9z"/>
		<path d="M1157.6,905.9h-54.3c-9.9,0-18-1.8-24.4-5.3c-7-3.8-12.8-8.8-17.4-15c-9.6-12.9-14.4-28.2-14.4-45.9
			c0-17.9,4.8-33.2,14.3-46c4.9-6.5,10.9-11.5,18-14.8c7.1-3.4,14.9-5,23.6-5h35.2l14.5,24.3h-49c-4.4,0-8.2,0.7-11.4,2
			c-3.3,1.3-6.4,3.4-9.3,6.4c-8.3,8.3-12.5,19.7-12.5,34.2c0,9.3,2.2,17.7,6.5,25.1c2.7,4.7,6.3,8.5,10.8,11.4s9.9,4.3,16,4.3h53.8
			L1157.6,905.9L1157.6,905.9z"/>
		<path d="M1241.5,905.9h-24.6l0.1-107.7h-34.8l-14.6-24.4h110.7l14.6,24.4h-51.3L1241.5,905.9z"/>
	</g>
</g>
</svg>
